<svg viewBox="0 0 1740 1006" xmlns="http://www.w3.org/2000/svg" dominant-baseline="central" text-anchor="middle" font-family="Inter,BlinkMacSystemFont,-apple-system,Segoe UI,Roboto,Ubuntu,Cantarell,Fira Sans,Droid Sans,Helvetica Neue,Helvetica,Arial,sans-serif"><g transform="translate(870 1003)"><path d="M 0 0 L -866.0254037844387 -499.99999999999994 A 1000 1000, 0, 0, 1, 866.0254037844387 -499.99999999999994 Z" fill="#FFECD1" stroke-width="5" stroke="#202020"></path><text x="0" y="-810" fill="#202020" font-size="50" font-weight="500">ASSESS</text><text x="-409.82316092322867" y="-750.8333333333334" fill="#202020" font-size="35" class="jsx-3463687480">Cluster API</text><text x="409.82316092322867" y="-750.8333333333334" fill="#202020" font-size="35" class="jsx-1219987176">kOps</text><path d="M 0 0 L -649.519052838329 -374.99999999999994 A 750 750, 0, 0, 1, 649.519052838329 -374.99999999999994 Z" fill="#B3D1BD" stroke-width="5" stroke="#202020"></path><text x="0" y="-560" fill="#202020" font-size="50" font-weight="500">TRIAL</text><path d="M 0 0 L -433.01270189221935 -249.99999999999997 A 500 500, 0, 0, 1, 433.01270189221935 -249.99999999999997 Z" fill="#83AF83" stroke-width="5" stroke="#202020"></path><text x="0" y="-120" fill="#202020" font-size="50" font-weight="500">ADOPT</text><text x="-262.828568570857" y="-290" fill="#202020" font-size="35" class="jsx-3463687480">Custom</text><text x="-262.828568570857" y="-255" fill="#202020" font-size="35" class="jsx-3463687480">inhouse tools</text><text x="-127.17797887081348" y="-370" fill="#202020" font-size="35" class="jsx-3463687480">Private cloud</text><text x="-127.17797887081348" y="-335" fill="#202020" font-size="35" class="jsx-3463687480">managed k8s</text><text x="127.17797887081348" y="-370" fill="#202020" font-size="35" class="jsx-3463687480">Public cloud</text><text x="127.17797887081348" y="-335" fill="#202020" font-size="35" class="jsx-3463687480">managed k8s</text><text x="262.828568570857" y="-290" fill="#202020" font-size="35" class="jsx-1219987176">HashiCorp</text><text x="262.828568570857" y="-255" fill="#202020" font-size="35" class="jsx-1219987176">Terraform</text></g></svg>