<?xml version="1.0" encoding="UTF-8" standalone="no"?>
<svg
   xmlns:dc="http://purl.org/dc/elements/1.1/"
   xmlns:cc="http://creativecommons.org/ns#"
   xmlns:rdf="http://www.w3.org/1999/02/22-rdf-syntax-ns#"
   xmlns:svg="http://www.w3.org/2000/svg"
   xmlns="http://www.w3.org/2000/svg"
   xmlns:sodipodi="http://sodipodi.sourceforge.net/DTD/sodipodi-0.dtd"
   xmlns:inkscape="http://www.inkscape.org/namespaces/inkscape"
   fill="none"
   height="262"
   viewBox="0 0 632 262"
   width="632"
   version="1.1"
   id="svg35"
   sodipodi:docname="hero-desktop_jp.svg"
   inkscape:version="0.92.5 (2060ec1f9f, 2020-04-08)">
  <metadata
     id="metadata41">
    <rdf:RDF>
      <cc:Work
         rdf:about="">
        <dc:format>image/svg+xml</dc:format>
        <dc:type
           rdf:resource="http://purl.org/dc/dcmitype/StillImage" />
        <dc:title></dc:title>
      </cc:Work>
    </rdf:RDF>
  </metadata>
  <defs
     id="defs39" />
  <sodipodi:namedview
     pagecolor="#ffffff"
     bordercolor="#666666"
     borderopacity="1"
     objecttolerance="10"
     gridtolerance="10"
     guidetolerance="10"
     inkscape:pageopacity="0"
     inkscape:pageshadow="2"
     inkscape:window-width="1848"
     inkscape:window-height="1016"
     id="namedview37"
     showgrid="false"
     inkscape:zoom="0.97863924"
     inkscape:cx="207.20579"
     inkscape:cy="167.54564"
     inkscape:window-x="72"
     inkscape:window-y="27"
     inkscape:window-maximized="1"
     inkscape:current-layer="svg35" />
  <path
     d="m364.399 108h12.125c4.552 0 7.803-2.984 7.803-7.191 0-2.8688-1.798-5.355-4.743-6.6938 2.295-1.1475 3.71-3.06 3.71-5.8522 0-3.825-2.983-6.5408-7.229-6.5408h-11.666zm2.448-14.8793v-9.1417h8.721c3.098 0 5.278 1.9125 5.278 4.5517 0 2.6775-2.142 4.59-5.125 4.59zm0 12.6223v-10.3655h9.18c3.404 0 5.852 2.142 5.852 5.1635 0 3.022-2.448 5.202-5.852 5.202zm34.467 2.716c6.273 0 10.71-4.59 10.71-11.0925v-15.6443h-2.448v15.6443c0 5.1635-3.443 8.8355-8.262 8.8355-4.858 0-8.262-3.672-8.262-8.8355v-15.6443h-2.448v15.6443c0 6.5025 4.437 11.0925 10.71 11.0925zm18.741-.459h2.448v-26.2778h-2.448zm13.655-2.333v-23.9448h-2.448v26.2778h17.059v-2.333zm19.665 2.333h8.912c8.186 0 13.961-5.47 13.961-13.158 0-7.6883-5.775-13.1198-13.961-13.1198h-8.912zm2.448-2.257v-21.764h6.464c6.732 0 11.475 4.5135 11.475 10.863 0 6.388-4.743 10.901-11.475 10.901zm26.986 2.257h2.448v-26.2778h-2.448zm11.206 0h2.448v-22.2998l16.83 22.2998h2.448v-26.2778h-2.448v22.2998l-16.83-22.2998h-2.448zm41.382-11.2455h8.071v6.6935c-2.066 1.683-5.011 2.716-7.727 2.716-5.967 0-11.016-5.164-11.016-11.322 0-6.12 5.049-11.2838 11.016-11.2838 3.06 0 6.426 1.3005 8.492 3.4043l1.683-1.7213c-2.525-2.448-6.464-3.978-10.175-3.978-7.305 0-13.464 6.1965-13.464 13.5788 0 7.382 6.159 13.617 13.464 13.617 3.711 0 7.65-1.568 10.175-3.978v-10.0598h-10.519zm-152.447 37.3005v-2.333h-18.551v26.278h2.448v-12.202h14.535v-2.371h-14.535v-9.372zm16.899 24.404c7.306 0 13.426-6.235 13.426-13.617s-6.12-13.579-13.426-13.579c-7.305 0-13.464 6.197-13.464 13.579s6.159 13.617 13.464 13.617zm0-2.295c-5.967 0-11.016-5.164-11.016-11.322 0-6.12 5.049-11.284 11.016-11.284 5.929 0 10.94 5.164 10.94 11.284 0 6.158-5.011 11.322-10.94 11.322zm40.292-16.142c0-4.857-4.093-8.3-9.486-8.3h-10.786v26.278h2.448v-9.716h6.234l6.847 9.716h2.831l-6.847-9.754c5.049-.268 8.759-3.595 8.759-8.224zm-17.824-5.967h7.879c4.437 0 7.459 2.295 7.459 5.967 0 3.634-3.022 5.929-7.459 5.929h-7.879zm40.036 23.945h2.448v-23.945h9.104v-2.333h-20.655v2.333h9.103zm35.084-26.278v11.705h-16.027v-11.705h-2.448v26.278h2.448v-12.202h16.027v12.202h2.448v-26.278zm29.543 2.333v-2.333h-18.322v26.278h18.322v-2.333h-15.874v-9.869h14.42v-2.371h-14.42v-9.372zm-142.309 55.967c0-4.857-4.092-8.3-9.486-8.3h-10.786v26.278h2.448v-9.716h6.235l6.846 9.716h2.831l-6.847-9.754c5.049-.268 8.759-3.595 8.759-8.224zm-17.824-5.967h7.879c4.437 0 7.459 2.295 7.459 5.967 0 3.634-3.022 5.929-7.459 5.929h-7.879zm35.318 24.404c7.306 0 13.426-6.235 13.426-13.617s-6.12-13.579-13.426-13.579-13.464 6.197-13.464 13.579 6.158 13.617 13.464 13.617zm0-2.295c-5.967 0-11.016-5.164-11.016-11.322 0-6.12 5.049-11.284 11.016-11.284 5.929 0 10.94 5.164 10.94 11.284 0 6.158-5.011 11.322-10.94 11.322zm39.642 1.836h2.677l-11.589-26.278h-2.678l-11.59 26.278h2.678l2.716-6.197h15.07zm-16.715-8.568 6.464-14.688 6.464 14.688zm24.585 8.568h8.912c8.186 0 13.961-5.47 13.961-13.158s-5.775-13.12-13.961-13.12h-8.912zm2.448-2.257v-21.764h6.464c6.732 0 11.475 4.513 11.475 10.863 0 6.388-4.743 10.901-11.475 10.901zm57.217 2.257h2.678l-11.59-26.278h-2.678l-11.589 26.278h2.677l2.716-6.197h15.07zm-16.715-8.568 6.464-14.688 6.464 14.688zm43.06-17.71v11.705h-16.027v-11.705h-2.448v26.278h2.448v-12.202h16.027v12.202h2.448v-26.278zm29.543 2.333v-2.333h-18.322v26.278h18.322v-2.333h-15.874v-9.869h14.42v-2.371h-14.42v-9.372zm26.14 23.945h2.678l-11.59-26.278h-2.677l-11.59 26.278h2.677l2.716-6.197h15.071zm-16.715-8.568 6.464-14.688 6.465 14.688zm24.585 8.568h8.913c8.185 0 13.961-5.47 13.961-13.158s-5.776-13.12-13.961-13.12h-8.913zm2.448-2.257v-21.764h6.465c6.732 0 11.475 4.513 11.475 10.863 0 6.388-4.743 10.901-11.475 10.901z"
     id="path27"
     fill="#0f0b47" />
  <path
     d="m14.832 38.432c3.744 0 7.164-1.62 9.576-4.14l-3.852-3.456c-1.404 1.656-3.456 2.772-5.724 2.772-4.176 0-7.704-3.672-7.704-7.992 0-4.284 3.528-7.956 7.704-7.956 2.232 0 4.32 1.116 5.724 2.772l3.852-3.456c-2.412-2.556-5.832-4.14-9.576-4.14-7.128 0-13.176 5.832-13.176 12.78s6.048 12.816 13.176 12.816zm19.2586-.432h5.328v-15.984l11.916 15.984h5.328v-24.732h-5.328v15.984l-11.916-15.984h-5.328zm45.9281.432c3.744 0 7.164-1.62 9.576-4.14l-3.852-3.456c-1.404 1.656-3.456 2.772-5.724 2.772-4.176 0-7.704-3.672-7.704-7.992 0-4.284 3.528-7.956 7.704-7.956 2.232 0 4.32 1.116 5.724 2.772l3.852-3.456c-2.412-2.556-5.832-4.14-9.576-4.14-7.128 0-13.176 5.832-13.176 12.78s6.048 12.816 13.176 12.816zm38.3023-20.376v-4.788h-19.0437v24.732h5.3277v-9.792h12.456v-4.788h-12.456v-5.364zm23.534 19.944h18.684v-4.788h-10.476l4.5-3.492c4.32-3.132 5.76-5.688 5.76-9 0-4.644-3.816-7.884-9.072-7.884-3.996 0-7.128 1.728-9.576 4.824l3.384 3.276c1.8-2.052 3.636-3.276 6.048-3.276 2.016 0 3.744 1.224 3.744 3.276 0 1.728-.936 3.348-3.888 5.688l-9.108 7.056zm38.784.432c6.516 0 11.088-5.292 11.088-12.816 0-7.488-4.572-12.78-11.088-12.78s-11.124 5.292-11.124 12.78c0 7.524 4.608 12.816 11.124 12.816zm0-4.824c-3.312 0-5.652-3.348-5.652-7.992s2.34-7.956 5.652-7.956 5.652 3.312 5.652 7.956-2.34 7.992-5.652 7.992zm19.688 4.392h18.684v-4.788h-10.476l4.5-3.492c4.32-3.132 5.76-5.688 5.76-9 0-4.644-3.816-7.884-9.072-7.884-3.996 0-7.128 1.728-9.576 4.824l3.384 3.276c1.8-2.052 3.636-3.276 6.048-3.276 2.016 0 3.744 1.224 3.744 3.276 0 1.728-.936 3.348-3.888 5.688l-9.108 7.056zm27.408 0h18.684v-4.788h-10.476l4.5-3.492c4.32-3.132 5.76-5.688 5.76-9 0-4.644-3.816-7.884-9.072-7.884-3.996 0-7.128 1.728-9.576 4.824l3.384 3.276c1.8-2.052 3.636-3.276 6.048-3.276 2.016 0 3.744 1.224 3.744 3.276 0 1.728-.936 3.348-3.888 5.688l-9.108 7.056z"
     fill="#5c2cff"
     id="path31" />
  <path
     d="m6 261.5h615"
     opacity=".5"
     stroke="#0f0b47"
     id="path33" />
  <g
     inkscape:groupmode="layer"
     id="layer3"
     inkscape:label="Layer 1" />
  <text
     xml:space="preserve"
     style="font-style:normal;font-variant:normal;font-weight:normal;font-stretch:normal;font-size:40px;line-height:1.25;font-family:'M+ 1c';-inkscape-font-specification:'M+ 1c';text-align:center;letter-spacing:0px;word-spacing:0px;text-anchor:middle;fill:#0f0b47;fill-opacity:1;stroke:none"
     x="155.93896"
     y="127.11884"
     id="text81"><tspan
       sodipodi:role="line"
       id="tspan79"
       x="155.93896"
       y="127.11884"
       style="font-style:normal;font-variant:normal;font-weight:900;font-stretch:normal;font-size:64px;font-family:'M+ 1c';-inkscape-font-specification:'M+ 1c Heavy';text-align:center;text-anchor:middle;fill:#0f0b47;fill-opacity:1">アニュアル</tspan><tspan
       sodipodi:role="line"
       x="164.74396"
       y="207.11884"
       id="tspan83"
       style="font-style:normal;font-variant:normal;font-weight:900;font-stretch:normal;font-size:64px;font-family:'M+ 1c';-inkscape-font-specification:'M+ 1c Heavy';text-align:center;letter-spacing:17.60998726px;text-anchor:middle;fill:#0f0b47;fill-opacity:1">レポート</tspan></text>
  <flowRoot
     xml:space="preserve"
     id="flowRoot927"
     style="fill:black;fill-opacity:1;stroke:none;font-family:'M+ 1c';font-style:normal;font-weight:normal;font-size:40px;line-height:1.25;letter-spacing:0px;word-spacing:0px;-inkscape-font-specification:'M+ 1c';font-stretch:normal;font-variant:normal;text-anchor:middle;text-align:center"><flowRegion
       id="flowRegion929"><rect
         id="rect931"
         width="234.841"
         height="88.601501"
         x="366.84698"
         y="95.377502" /></flowRegion><flowPara
       id="flowPara933"></flowPara></flowRoot>  <text
     xml:space="preserve"
     style="font-style:normal;font-variant:normal;font-weight:normal;font-stretch:normal;font-size:40px;line-height:1.25;font-family:'M+ 1c';-inkscape-font-specification:'M+ 1c';text-align:start;letter-spacing:0px;word-spacing:0px;text-anchor:start;fill:#000000;fill-opacity:1;stroke:none"
     x="358.68118"
     y="58.732174"
     id="text911-4"><tspan
       sodipodi:role="line"
       x="358.68118"
       y="58.732174"
       id="tspan913-7"
       style="font-size:21.33333397px;text-align:start;text-anchor:start">道のむこうへ  築いていく</tspan></text>
</svg>
